<mxfile host="app.diagrams.net" agent="Mozilla/5.0 (Macintosh; Intel Mac OS X 10_15_7) AppleWebKit/537.36 (KHTML, like Gecko) Chrome/135.0.0.0 Safari/537.36" version="26.2.10">
  <diagram name="Page-1" id="fqVPGiyWNGA8M5bjry9U">
    <mxGraphModel dx="2383" dy="948" grid="1" gridSize="10" guides="1" tooltips="1" connect="1" arrows="1" fold="1" page="1" pageScale="1" pageWidth="827" pageHeight="1169" math="0" shadow="0">
      <root>
        <mxCell id="0" />
        <mxCell id="1" parent="0" />
        <mxCell id="2GARxX9RsfRO5ykLCrAF-38" value="" style="whiteSpace=wrap;html=1;aspect=fixed;" vertex="1" parent="1">
          <mxGeometry x="630" y="230" width="550" height="550" as="geometry" />
        </mxCell>
        <mxCell id="2GARxX9RsfRO5ykLCrAF-1" value="" style="whiteSpace=wrap;html=1;aspect=fixed;" vertex="1" parent="1">
          <mxGeometry x="179" y="230" width="390" height="390" as="geometry" />
        </mxCell>
        <mxCell id="2GARxX9RsfRO5ykLCrAF-2" value="SFCC REALM BDNX" style="text;html=1;align=center;verticalAlign=middle;whiteSpace=wrap;rounded=0;" vertex="1" parent="1">
          <mxGeometry x="285" y="240" width="180" height="30" as="geometry" />
        </mxCell>
        <mxCell id="2GARxX9RsfRO5ykLCrAF-3" value="PIG Primary Instance Group" style="rounded=1;whiteSpace=wrap;html=1;" vertex="1" parent="1">
          <mxGeometry x="210" y="250" width="330" height="170" as="geometry" />
        </mxCell>
        <mxCell id="2GARxX9RsfRO5ykLCrAF-4" value="SIG Secondary Instance Group" style="rounded=1;whiteSpace=wrap;html=1;" vertex="1" parent="1">
          <mxGeometry x="210" y="450" width="330" height="120" as="geometry" />
        </mxCell>
        <mxCell id="2GARxX9RsfRO5ykLCrAF-5" value="Production" style="whiteSpace=wrap;html=1;aspect=fixed;" vertex="1" parent="1">
          <mxGeometry x="220" y="350" width="80" height="80" as="geometry" />
        </mxCell>
        <mxCell id="2GARxX9RsfRO5ykLCrAF-6" style="edgeStyle=orthogonalEdgeStyle;rounded=0;orthogonalLoop=1;jettySize=auto;html=1;entryX=0;entryY=0.5;entryDx=0;entryDy=0;" edge="1" parent="1" source="2GARxX9RsfRO5ykLCrAF-7" target="2GARxX9RsfRO5ykLCrAF-11">
          <mxGeometry relative="1" as="geometry">
            <Array as="points">
              <mxPoint x="375" y="440" />
              <mxPoint x="650" y="440" />
              <mxPoint x="650" y="390" />
            </Array>
          </mxGeometry>
        </mxCell>
        <mxCell id="2GARxX9RsfRO5ykLCrAF-7" value="STAGING" style="whiteSpace=wrap;html=1;aspect=fixed;" vertex="1" parent="1">
          <mxGeometry x="335" y="350" width="80" height="80" as="geometry" />
        </mxCell>
        <mxCell id="2GARxX9RsfRO5ykLCrAF-41" style="edgeStyle=orthogonalEdgeStyle;rounded=0;orthogonalLoop=1;jettySize=auto;html=1;entryX=0;entryY=0.5;entryDx=0;entryDy=0;" edge="1" parent="1" source="2GARxX9RsfRO5ykLCrAF-8" target="2GARxX9RsfRO5ykLCrAF-40">
          <mxGeometry relative="1" as="geometry" />
        </mxCell>
        <mxCell id="2GARxX9RsfRO5ykLCrAF-8" value="DEVELOPMENT&lt;br&gt;(Perf. Tests)" style="whiteSpace=wrap;html=1;aspect=fixed;" vertex="1" parent="1">
          <mxGeometry x="450" y="350" width="80" height="80" as="geometry" />
        </mxCell>
        <mxCell id="2GARxX9RsfRO5ykLCrAF-9" value="DEV SANDBOXES" style="whiteSpace=wrap;html=1;aspect=fixed;" vertex="1" parent="1">
          <mxGeometry x="140" y="580" width="80" height="80" as="geometry" />
        </mxCell>
        <mxCell id="2GARxX9RsfRO5ykLCrAF-10" value="QA&lt;br&gt;SANDBOX&lt;br&gt;(per team)" style="whiteSpace=wrap;html=1;aspect=fixed;" vertex="1" parent="1">
          <mxGeometry x="334" y="530" width="80" height="80" as="geometry" />
        </mxCell>
        <mxCell id="2GARxX9RsfRO5ykLCrAF-11" value="STAGING&lt;br&gt;part Copy" style="whiteSpace=wrap;html=1;aspect=fixed;" vertex="1" parent="1">
          <mxGeometry x="720" y="350" width="80" height="80" as="geometry" />
        </mxCell>
        <mxCell id="2GARxX9RsfRO5ykLCrAF-12" value="QA" style="whiteSpace=wrap;html=1;aspect=fixed;" vertex="1" parent="1">
          <mxGeometry x="720" y="450" width="80" height="80" as="geometry" />
        </mxCell>
        <mxCell id="2GARxX9RsfRO5ykLCrAF-13" value="CSQA" style="whiteSpace=wrap;html=1;aspect=fixed;" vertex="1" parent="1">
          <mxGeometry x="827" y="450" width="80" height="80" as="geometry" />
        </mxCell>
        <mxCell id="2GARxX9RsfRO5ykLCrAF-14" value="MHQA" style="whiteSpace=wrap;html=1;aspect=fixed;" vertex="1" parent="1">
          <mxGeometry x="950" y="450" width="80" height="80" as="geometry" />
        </mxCell>
        <mxCell id="2GARxX9RsfRO5ykLCrAF-15" value="DEV ORG" style="whiteSpace=wrap;html=1;aspect=fixed;" vertex="1" parent="1">
          <mxGeometry x="720" y="670" width="80" height="80" as="geometry" />
        </mxCell>
        <mxCell id="2GARxX9RsfRO5ykLCrAF-16" value="CI" style="whiteSpace=wrap;html=1;aspect=fixed;" vertex="1" parent="1">
          <mxGeometry x="720" y="560" width="80" height="80" as="geometry" />
        </mxCell>
        <mxCell id="2GARxX9RsfRO5ykLCrAF-17" value="SFCC REALM - BDNX&lt;br&gt;production-eu01-heathrow.demandware.net" style="text;html=1;align=center;verticalAlign=middle;whiteSpace=wrap;rounded=0;" vertex="1" parent="1">
          <mxGeometry x="190" y="190" width="370" height="30" as="geometry" />
        </mxCell>
        <mxCell id="2GARxX9RsfRO5ykLCrAF-18" value="" style="whiteSpace=wrap;html=1;aspect=fixed;" vertex="1" parent="1">
          <mxGeometry x="-300" y="230" width="370" height="370" as="geometry" />
        </mxCell>
        <mxCell id="2GARxX9RsfRO5ykLCrAF-19" value="SFCC REALM BDNX" style="text;html=1;align=center;verticalAlign=middle;whiteSpace=wrap;rounded=0;" vertex="1" parent="1">
          <mxGeometry x="-205" y="240" width="180" height="30" as="geometry" />
        </mxCell>
        <mxCell id="2GARxX9RsfRO5ykLCrAF-20" value="PIG Primary Instance Group" style="rounded=1;whiteSpace=wrap;html=1;" vertex="1" parent="1">
          <mxGeometry x="-280" y="250" width="330" height="170" as="geometry" />
        </mxCell>
        <mxCell id="2GARxX9RsfRO5ykLCrAF-21" value="SIG Secondary Instance Group" style="rounded=1;whiteSpace=wrap;html=1;" vertex="1" parent="1">
          <mxGeometry x="-280" y="450" width="330" height="120" as="geometry" />
        </mxCell>
        <mxCell id="2GARxX9RsfRO5ykLCrAF-22" value="Production" style="whiteSpace=wrap;html=1;aspect=fixed;" vertex="1" parent="1">
          <mxGeometry x="-270" y="350" width="80" height="80" as="geometry" />
        </mxCell>
        <mxCell id="2GARxX9RsfRO5ykLCrAF-23" value="STAGING" style="whiteSpace=wrap;html=1;aspect=fixed;" vertex="1" parent="1">
          <mxGeometry x="-155" y="350" width="80" height="80" as="geometry" />
        </mxCell>
        <mxCell id="2GARxX9RsfRO5ykLCrAF-24" value="DEVELOPMENT" style="whiteSpace=wrap;html=1;aspect=fixed;" vertex="1" parent="1">
          <mxGeometry x="-40" y="350" width="80" height="80" as="geometry" />
        </mxCell>
        <mxCell id="2GARxX9RsfRO5ykLCrAF-25" value="DEV SANDBOXES" style="whiteSpace=wrap;html=1;aspect=fixed;" vertex="1" parent="1">
          <mxGeometry x="-250" y="530" width="80" height="80" as="geometry" />
        </mxCell>
        <mxCell id="2GARxX9RsfRO5ykLCrAF-26" value="DEV SANDBOXES" style="whiteSpace=wrap;html=1;aspect=fixed;" vertex="1" parent="1">
          <mxGeometry x="-140" y="530" width="80" height="80" as="geometry" />
        </mxCell>
        <mxCell id="2GARxX9RsfRO5ykLCrAF-27" value="SFCC TEST REALM - BDNX&lt;br&gt;production-test-heathrow.demandware.net" style="text;html=1;align=center;verticalAlign=middle;whiteSpace=wrap;rounded=0;" vertex="1" parent="1">
          <mxGeometry x="-300" y="190" width="370" height="30" as="geometry" />
        </mxCell>
        <mxCell id="2GARxX9RsfRO5ykLCrAF-37" value="UAT&lt;br&gt;SANDBOX" style="whiteSpace=wrap;html=1;aspect=fixed;" vertex="1" parent="1">
          <mxGeometry x="430" y="530" width="80" height="80" as="geometry" />
        </mxCell>
        <mxCell id="2GARxX9RsfRO5ykLCrAF-39" value="SFDC" style="text;html=1;align=center;verticalAlign=middle;whiteSpace=wrap;rounded=0;" vertex="1" parent="1">
          <mxGeometry x="640" y="200" width="540" height="30" as="geometry" />
        </mxCell>
        <mxCell id="2GARxX9RsfRO5ykLCrAF-40" value="Full Copy" style="whiteSpace=wrap;html=1;aspect=fixed;" vertex="1" parent="1">
          <mxGeometry x="720" y="260" width="80" height="80" as="geometry" />
        </mxCell>
        <mxCell id="2GARxX9RsfRO5ykLCrAF-42" value="PROJECT UAT&lt;br&gt;SANDBOX" style="whiteSpace=wrap;html=1;aspect=fixed;" vertex="1" parent="1">
          <mxGeometry x="335" y="620" width="80" height="80" as="geometry" />
        </mxCell>
        <mxCell id="2GARxX9RsfRO5ykLCrAF-43" value="PROJECT&lt;br&gt;CI SANDBOXES" style="whiteSpace=wrap;html=1;aspect=fixed;" vertex="1" parent="1">
          <mxGeometry x="250" y="580" width="80" height="80" as="geometry" />
        </mxCell>
      </root>
    </mxGraphModel>
  </diagram>
</mxfile>
